:SAMPLES-PER-SECOND 30
:FRAME-RANGE 1-3549
:FULLY-SPECIFIED
:DEGREES
2219
root  1.15012 39.5838 28.979 179.407 4.92322 178.339
RightUpLeg  3.57053 -3.83202 4.35229
RightLeg  8.07096 -9.47429 0.94182
RightFoot  -12.6005 -0.122694 -3.41559
RightToes  -1.11029e-010 1.2921e-014 -6.02303e-014
Spine  6.10139 1.72654 7.56254
Spine1  -0.642984 3.04089 -5.37681
HEad  -0.127967 8.26271 -3.89369
LeftShoulder1  1.17722 0.4256 -32.1824
LeftArm  11.3754 13.1472 -30.0501
LeftForeArm  3.24388 -10.434 -14.6466
LeftHand  0.236781 -0.306229 -4.82697
RightShoulder  7.82666 9.58259 52.3458
RightArm  34.2003 0.979903 14.8955
RightForeArm  2.20386 15.0116 11.8316
RightHand  -0.335601 3.60082 -4.58502
LeftUpLeg  -18.0841 4.32659 -0.29559
LeftLeg  12.4224 -2.58225 -0.619079
LeftFoot  0.297744 1.04132 -10.216
LeftToes  -1.9349e-011 -1.19469e-011 -2.02219e-012
2220
root  1.32063 39.5704 28.1636 179.65 5.0354 178.407
RightUpLeg  5.41025 -3.63334 4.51186
RightLeg  6.55099 -9.8931 1.19108
RightFoot  -13.0686 -0.134707 -3.07603
RightToes  -1.11029e-010 1.2921e-014 -6.02303e-014
Spine  5.65537 1.73622 6.92674
Spine1  -0.519951 2.99525 -5.48793
HEad  -0.1979 8.55345 -3.78125
LeftShoulder1  1.19156 0.386502 -32.1635
LeftArm  11.4903 12.781 -30.2506
LeftForeArm  3.49703 -10.2451 -14.7578
LeftHand  0.240659 -0.283562 -4.91932
RightShoulder  7.82977 9.53483 52.5519
RightArm  32.977 0.949612 14.7168
RightForeArm  4.12436 13.4807 12.9728
RightHand  -0.343643 3.56268 -4.70619
LeftUpLeg  -17.2565 4.50857 -0.640118
LeftLeg  4.39512 2.2094 -3.11744
LeftFoot  2.36969 1.44684 -12.1194
LeftToes  -1.9349e-011 -1.19469e-011 -2.02219e-012
2221
root  1.463 39.463 27.2841 179.72 5.03491 178.704
RightUpLeg  7.00016 -3.54205 4.80875
RightLeg  6.28396 -9.86473 1.34155
RightFoot  -14.1666 -0.164248 -2.77682
RightToes  -1.11029e-010 1.2921e-014 -6.02303e-014
Spine  5.22475 1.67867 6.743
Spine1  -0.383171 2.94195 -5.66543
HEad  -0.262218 8.74511 -3.58689
LeftShoulder1  1.20558 0.35138 -32.1827
LeftArm  11.7272 12.3182 -30.3128
LeftForeArm  3.70366 -10.1137 -14.8439
LeftHand  0.241579 -0.310471 -4.99372
RightShoulder  7.80946 9.48758 52.6047
RightArm  30.3165 0.791672 14.7039
RightForeArm  7.58736 10.994 14.4788
RightHand  -0.36361 3.4961 -4.99755
LeftUpLeg  -15.9023 3.85099 -1.0061
LeftLeg  -2.19309 10.6409 -5.38183
LeftFoot  5.24181 2.11351 -14.6563
LeftToes  -1.9349e-011 -1.19469e-011 -2.02219e-012
2222
root  1.62071 39.2811 26.3393 179.686 4.83563 179.127
RightUpLeg  8.44458 -3.55146 5.2815
RightLeg  6.84496 -10.1343 1.39741
RightFoot  -15.6906 -0.186047 -2.10567
RightToes  -1.11029e-010 1.2921e-014 -6.02303e-014
Spine  4.73748 1.66064 6.43863
Spine1  -0.245947 2.86193 -5.4912
HEad  -0.181126 8.66667 -3.30455
LeftShoulder1  1.21411 0.326088 -32.1471
LeftArm  11.9684 11.8214 -30.3962
LeftForeArm  3.86341 -10.1008 -14.8585
LeftHand  0.237486 -0.263688 -4.85465
RightShoulder  7.74569 9.33117 52.8047
RightArm  28.4067 0.603822 14.3085
RightForeArm  10.0429 8.56583 15.7572
RightHand  -0.350126 3.56912 -4.78713
LeftUpLeg  -14.9875 3.55 -2.07926
LeftLeg  -4.9993 18.4532 -6.46494
LeftFoot  6.56625 2.28992 -14.7217
LeftToes  -1.9349e-011 -1.19469e-011 -2.02219e-012
2223
root  1.81003 39.1695 25.371 179.531 4.43738 179.323
RightUpLeg  10.1713 -3.53589 5.50863
RightLeg  7.04873 -10.5564 1.59549
RightFoot  -16.5035 -0.160951 -1.09449
RightToes  -1.11029e-010 1.2921e-014 -6.02303e-014
Spine  4.45246 1.58533 5.51759
Spine1  -0.155224 2.78335 -5.34173
HEad  0.0956231 8.45961 -2.6506
LeftShoulder1  1.20715 0.324127 -31.9047
LeftArm  11.9985 11.5383 -30.4699
LeftForeArm  4.0373 -10.2721 -14.7405
LeftHand  0.233731 -0.294538 -4.77571
RightShoulder  7.56781 8.97023 53.0761
RightArm  27.0764 0.163955 13.9783
RightForeArm  11.8429 6.4364 16.68
RightHand  -0.342225 3.60941 -4.66655
LeftUpLeg  -14.7818 2.92973 -3.62087
LeftLeg  -3.94474 19.9834 -6.00639
LeftFoot  8.19964 0.216798 -1.54956
LeftToes  -1.9349e-011 -1.19469e-011 -2.02219e-012
2224
root  2.02957 39.0509 24.348 178.967 4.23236 179.193
RightUpLeg  11.8814 -4.62996 5.04771
RightLeg  8.41797 -9.34544 1.62297
RightFoot  -17.3789 -0.116413 0.0220634
RightToes  -1.11029e-010 1.2921e-014 -6.02303e-014
Spine  4.61294 1.64285 3.88229
Spine1  -0.330782 2.7271 -4.8177
HEad  0.358805 8.18592 -1.8676
LeftShoulder1  1.19633 0.347164 -31.8386
LeftArm  13.4225 11.3827 -30.1639
LeftForeArm  2.54246 -11.1367 -14.3661
LeftHand  0.227335 -0.275555 -4.66226
RightShoulder  7.40447 8.59217 53.5361
RightArm  26.258 -0.404497 13.4602
RightForeArm  12.8656 4.67435 17.3325
RightHand  -0.340124 3.31307 -4.77731
LeftUpLeg  -14.6629 1.95645 -4.70727
LeftLeg  -1.18062 19.6857 -4.0638
LeftFoot  11.4944 -1.77679 8.43178
LeftToes  -1.9349e-011 -1.19469e-011 -2.02219e-012
